<svg xmlns="http://www.w3.org/2000/svg" width="71.422" height="82.826" viewBox="0 0 71.422 82.826">
  <path id="Trazado_5" data-name="Trazado 5" d="M69.6,426.4c0-7.86,5.225-12.131,11.4-12.131,6.134,0,11.358,4.271,11.358,12.131,0,7.815-5.225,12.131-11.358,12.131-6.179-.045-11.4-4.316-11.4-12.131m18.628.045c0-6.315-3.09-9.5-7.269-9.5-4.225,0-7.315,3.18-7.315,9.5,0,6.27,3.09,9.45,7.315,9.45,4.18.045,7.269-3.18,7.269-9.45m-16.9-42.117v22.308H90.045V379.008c-6.452,2.135-12.721,3.907-18.719,5.316m33.667-10.813c-2.908,1.181-5.861,2.317-8.723,3.362v29.8h18.719V369.194c-3.226,1.5-6.542,2.908-10,4.316m16.22-7.315v40.436h18.719V355.7a197.8,197.8,0,0,1-18.719,10.5m13.948,59.564v-.091c2.953-.591,4.771-2.09,4.771-5.134,0-4.271-3.226-6-8.5-6h-9.45v2.181h1.408a1.215,1.215,0,0,1,1.045,1.136v17.129a1.253,1.253,0,0,1-1.045,1.09h-1.408V438.3h9.859c5.5,0,9.178-2.135,9.178-6.77-.045-3.5-2.317-5.27-5.861-5.77m-6.77-8.86h2.953c3.135,0,4.68,1,4.68,3.862,0,2.771-1.545,3.953-4.725,3.953h-2.908Zm3.317,18.991h-3.317v-8.86h3.18c3.816,0,5.27,1.272,5.27,4.316,0,3-1.5,4.543-5.134,4.543M96.633,417.854a1.6,1.6,0,0,0-1.363-1.136h-.818v-2.226h9.041v2.226h-3l5.952,17.628h.045l5.407-15.4c.5-1.408.182-2.226-1.136-2.226h-1.454v-2.226h8.314v2.226H116.9a1.64,1.64,0,0,0-1.5,1.181l-7.406,20.309h-4.134Z" transform="translate(-69.6 -355.7)" fill="#003a65"/>
</svg>
